:SAMPLES-PER-SECOND 30
:FULLY-SPECIFIED
:DEGREES
367
root  -6.88162 38.5854 46.6146 -23.4146 -0.894218 -13.8531
RightUpLeg  -97.118 -3.21472 12.7651
RightLeg  103.892 17.7619 -7.11954
RightFoot  -4.01201 0.38454 -4.75844
RightToes  -5.82073e-011 -3.18055e-015 -2.98177e-016
Spine  32.6352 -3.80251 -0.988262
Spine1  -0.849652 -6.11004 24.6151
HEad  -8.58298 20.3929 17.5889
LeftShoulder1  -3.88251e-019 9.70628e-020 -3.87848e-018
LeftArm  -20.4545 63.007 -61.3915
LeftForeArm  -7.93192 -13.9782 -3.97067
LeftHand  -0.445503 -1.99359 7.58718
RightShoulder  4.45172 7.92434 23.7519
RightArm  31.0433 -59.7189 -10.7775
RightForeArm  -17.9037 31.56 -16.2125
RightHand  -1.21972 2.74599 -17.216
LeftUpLeg  4.293 -11.702 7.08817
LeftLeg  34.9168 -5.99771 6.73085
LeftFoot  -15.2087 -0.00438134 3.5237
LeftToes  5.79026e-011 9.70705e-012 -3.73859e-011
368
root  -6.62956 36.8058 46.4491 -25.7169 -2.10142 -10.5703
RightUpLeg  -94.2966 -0.51307 9.40766
RightLeg  97.898 17.2679 -8.04226
RightFoot  -4.16945 0.391166 -4.80853
RightToes  -5.82073e-011 -3.18055e-015 -2.98177e-016
Spine  34.4396 -2.08415 -4.79814
Spine1  3.38423 -6.76298 26.5277
HEad  -9.81014 20.1268 19.3558
LeftShoulder1  -3.88251e-019 9.70628e-020 -3.87848e-018
LeftArm  -31.2323 65.647 -71.6884
LeftForeArm  -7.824 -11.6935 -2.58034
LeftHand  -0.505505 -1.00085 9.93683
RightShoulder  6.0094 8.98776 30.8292
RightArm  18.9741 -56.8863 -8.80098
RightForeArm  -21.2678 27.9896 -14.0329
RightHand  -0.938066 -0.648471 -22.5106
LeftUpLeg  1.86871 -5.93829 4.46514
LeftLeg  45.5927 -6.8377 8.34718
LeftFoot  -23.9958 0.400963 5.01766
LeftToes  5.79026e-011 9.70705e-012 -3.73859e-011
369
root  -6.31567 35.537 46.377 -24.7703 -3.6909 -7.03212
RightUpLeg  -90.6145 2.07549 7.95205
RightLeg  96.1982 17.2525 -9.15963
RightFoot  0.343993 0.52052 -4.53345
RightToes  -5.82073e-011 -3.18055e-015 -2.98177e-016
Spine  32.321 -1.74745 -5.43074
Spine1  7.47721 -7.18029 23.2566
HEad  -9.45186 17.2697 17.7435
LeftShoulder1  -3.88251e-019 9.70628e-020 -3.87848e-018
LeftArm  -39.2875 67.0485 -79.0853
LeftForeArm  -10.6528 -10.4245 -1.76581
LeftHand  -0.453723 -0.326893 9.99816
RightShoulder  7.19577 10.0284 34.985
RightArm  4.95055 -58.6685 -2.90402
RightForeArm  -31.4687 24.1333 -11.5997
RightHand  -0.303969 -4.21758 -26.598
LeftUpLeg  -4.75168 3.36195 3.07094
LeftLeg  56.0542 -8.9413 8.53328
LeftFoot  -23.8172 0.507411 6.13049
LeftToes  5.79026e-011 9.70705e-012 -3.73859e-011
370
root  -6.03332 34.7876 46.4972 -22.199 -4.54743 -4.74411
RightUpLeg  -84.8831 2.44736 7.52053
RightLeg  97.9633 17.7316 -10.1414
RightFoot  3.53675 0.415935 -2.92921
RightToes  -5.82073e-011 -3.18055e-015 -2.98177e-016
Spine  27.8514 -2.43608 -3.72134
Spine1  9.76795 -6.63789 16.8169
HEad  -7.44984 12.7585 14.1873
LeftShoulder1  -3.88251e-019 9.70628e-020 -3.87848e-018
LeftArm  -43.8405 68.9226 -83.1403
LeftForeArm  -12.7953 -11.0683 -1.61343
LeftHand  -0.329947 -0.967293 6.54885
RightShoulder  7.35984 10.2056 35.405
RightArm  -1.18027 -64.1355 2.32852
RightForeArm  -44.232 22.464 -10.3305
RightHand  -0.0967773 -5.06416 -26.6127
LeftUpLeg  -9.96032 9.88379 1.3284
LeftLeg  60.9576 -9.53654 9.04756
LeftFoot  -23.5404 0.642118 7.6545
LeftToes  5.79026e-011 9.70705e-012 -3.73859e-011
371
root  -5.90694 34.3483 46.5304 -20.3665 -4.06437 -2.34879
RightUpLeg  -75.7671 1.22328 5.4961
RightLeg  99.416 18.6533 -12.8329
RightFoot  2.74385 0.506035 -3.77968
RightToes  -5.82073e-011 -3.18055e-015 -2.98177e-016
Spine  24.1482 -2.22196 -3.87748
Spine1  10.9225 -5.84363 12.7143
HEad  -6.93831 9.0285 10.9379
LeftShoulder1  -3.88251e-019 9.70628e-020 -3.87848e-018
LeftArm  -47.7822 71.1407 -87.0142
LeftForeArm  -14.6368 -14.1212 -1.47119
LeftHand  -0.23051 -1.34356 4.36914
RightShoulder  7.54216 10.3125 36.0863
RightArm  4.22007 -67.2037 2.14402
RightForeArm  -49.2517 22.0065 -9.98033
RightHand  -0.284054 -4.11276 -23.8633
LeftUpLeg  -11.8579 10.7409 -2.18459
LeftLeg  61.0485 -9.09911 9.99978
LeftFoot  -26.9662 0.904282 8.06398
LeftToes  5.79026e-011 9.70705e-012 -3.73859e-011
372
root  -5.90549 34.0727 46.4711 -19.6088 -3.36021 0.635619
RightUpLeg  -63.6362 0.146927 1.94212
RightLeg  97.8906 19.3077 -16.9889
RightFoot  2.56062 1.02663 -7.47318
RightToes  -5.82073e-011 -3.18055e-015 -2.98177e-016
Spine  22.2538 -0.860161 -6.53357
Spine1  11.8868 -5.21289 12.2886
HEad  -8.93338 6.88033 9.1032
LeftShoulder1  -3.88251e-019 9.70628e-020 -3.87848e-018
LeftArm  -52.7058 72.5688 -92.2884
LeftForeArm  -18.2283 -17.6154 -0.833852
LeftHand  -0.355782 -1.25799 6.65813
RightShoulder  8.20685 10.7297 38.45
RightArm  10.1796 -65.6382 -0.506338
RightForeArm  -41.1858 21.2654 -9.86136
RightHand  -0.518645 -2.66771 -21.0632
LeftUpLeg  -12.3356 8.45504 -6.52622
LeftLeg  59.9793 -8.28646 11.2236
LeftFoot  -29.3043 0.917899 6.97562
LeftToes  5.79026e-011 9.70705e-012 -3.73859e-011
